<?xml version="1.0" encoding="utf-8"?>
<!-- Generator: Adobe Illustrator 28.0.0, SVG Export Plug-In . SVG Version: 6.00 Build 0)  -->
<svg version="1.1" baseProfile="basic" id="Layer_1" xmlns="http://www.w3.org/2000/svg"
	xmlns:xlink="http://www.w3.org/1999/xlink" x="0px" y="0px" viewBox="0 0 1350.2 86.5" xml:space="preserve">
	<path fill="black" d="M80.3,61.9c6.2,0,10.5-2.1,10.5-9v-40h12v40c0,14.8-7.7,20.8-22.5,20.8s-22.5-6-22.5-20.8v-40h12v40
	C69.8,59.9,74.1,61.9,80.3,61.9z" />
	<path fill="black" d="M137.6,53.5h-11.5v19.4h-12v-60h23c14.2,0,20.9,5.7,20.9,19.9c0,8.9-3.3,13.7-8.7,17.1l8.4,23h-13.1L137.6,53.5z
	 M137.1,24.3h-11v17.8h11.1c6,0,8.4-3.7,8.4-9.1C145.7,27.2,142.9,24.3,137.1,24.3z" />
	<path fill="black" d="M223.2,24.9c0,0-12.3-1.4-17.3-1.4c-6.4,0-9.5,1.9-9.5,5.8c0,3.7,2.3,5.1,12.3,8.3c12.8,4.1,16.7,7.7,16.7,18.1
	c0,12.3-8.8,18.3-21.1,18.3c-6.6,0-18.3-2.4-18.3-2.4l1.2-10.7c0,0,10.8,1.5,17,1.5c6.4,0,9.2-1.7,9.2-6.4c0-3.7-2.1-5.4-10.6-7.8
	c-13.3-3.8-18.4-8.4-18.4-18.6c0-11.5,8.2-17.7,21.4-17.7c6.7,0,18.3,2.3,18.3,2.3L223.2,24.9z" />
	<path fill="black" d="M234.1,12.9h38.1v11.5h-26.3v13.4H267V49h-21.1v12.4h26.3v11.5h-38.1V12.9z" />
	<path fill="black"
		d="M319.5,71.6c0,0-10.4,2.3-17.2,2.3c-18.3,0-22.6-10.2-22.6-31.1c0-22.6,5.9-31.1,22.6-31.1c7.4,0,17.3,2.5,17.3,2.5
	l-0.3,10.5c0,0-10.5-1.2-15.2-1.2c-9.1,0-12,3.5-12,19.2c0,14.9,2.1,19.2,12.4,19.2c4.4,0,14.9-1.3,14.9-1.3L319.5,71.6z" />
	<path fill="black" d="M352.2,53.5h-11.5v19.4h-12v-60h23c14.2,0,20.9,5.7,20.9,19.9c0,8.9-3.3,13.7-8.7,17.1l8.4,23h-13.1L352.2,53.5z
	 M351.7,24.3h-11v17.8h11.1c6,0,8.4-3.7,8.4-9.1C360.3,27.2,357.4,24.3,351.7,24.3z" />
	<path fill="black" d="M382.1,12.9h38.1v11.5h-26.3v13.4H415V49h-21.1v12.4h26.3v11.5h-38.1V12.9z" />
	<path fill="black" d="M429.3,12.9h43.5v11.6h-15.7v48.5h-12V24.4h-15.8V12.9z" />
	<path fill="black" d="M499.8,12.1h12v60h-12V12.1z" />
	<path fill="black" d="M524,12.1h18.9L559.5,57h1.3V12.1h12v60h-18.3l-17.2-44.9H536v44.9h-12V12.1z" />
	<path fill="black"
		d="M609.6,40.3h17.2v30.9c0,0-12.4,2-20.2,2c-18.8,0-24.2-11-24.2-31.2c0-21.6,6.3-30.9,23.8-30.9c9.1,0,20.6,2.5,20.6,2.5
	l-0.3,10.4c0,0-10.4-1.1-18.4-1.1c-10.3,0-13.3,3.6-13.3,19.1c0,15.1,2.2,19.6,13,19.6c3.6,0,7.2-0.3,7.2-0.3V51h-5.4V40.3z" />
	<path fill="black" d="M660.3,52.7h-11.5v19.4h-12v-60h23c14.2,0,20.9,5.7,20.9,19.9c0,8.9-3.3,13.7-8.7,17.1l8.4,23h-13.1L660.3,52.7z
	 M659.8,23.5h-11v17.8h11.1c6,0,8.4-3.7,8.4-9.1C668.4,26.4,665.5,23.5,659.8,23.5z" />
	<path fill="black" d="M690.2,12.1h38.1v11.5H702V37h21.1v11.2H702v12.4h26.3v11.5h-38.1V12.1z" />
	<path fill="black" d="M738.3,72.1v-60h19.8c20.6,0,25.1,9,25.1,28.9c0,20.4-3.9,31.1-25.1,31.1H738.3z M758.1,23.5h-7.9v37.2h7.9
	c11.7,0,12.8-7.4,12.8-19.8C770.9,28.8,769.7,23.5,758.1,23.5z" />
	<path fill="black" d="M792.8,12.1h12v60h-12V12.1z" />
	<path fill="black" d="M817,12.1h38.1v11.5h-26.3V37h21.1v11.2h-21.1v12.4h26.3v11.5H817V12.1z" />
	<path fill="black" d="M865.1,12.1h18.9L900.6,57h1.3V12.1h12v60h-18.3l-17.2-44.9h-1.3v44.9h-12V12.1z" />
	<path fill="black" d="M919.1,12.1h43.5v11.6h-15.7v48.5h-12V23.7h-15.8V12.1z" />
	<path fill="black" d="M991.4,12.8h12v60h-12V12.8z" />
	<path fill="black" d="M1050.8,24.8c0,0-12.3-1.4-17.3-1.4c-6.4,0-9.5,1.9-9.5,5.8c0,3.7,2.3,5.1,12.3,8.3c12.8,4.1,16.7,7.7,16.7,18.1
	c0,12.3-8.8,18.3-21.1,18.3c-6.6,0-18.3-2.4-18.3-2.4l1.2-10.7c0,0,10.8,1.5,17,1.5c6.4,0,9.2-1.7,9.2-6.4c0-3.7-2.1-5.4-10.6-7.8
	c-13.3-3.8-18.4-8.4-18.4-18.6c0-11.5,8.2-17.7,21.4-17.7c6.7,0,18.3,2.3,18.3,2.3L1050.8,24.8z" />
	<path fill="black" d="M1085.7,85.1V1.5h16.7V69h30.2v16.1H1085.7z" />
	<path fill="black" d="M1286.2,1.5l-19.4,83.6h-30.9l-19.2-83.6h17.6l14.3,67.6h5.5l14.5-67.6H1286.2z" />
	<path fill="black" d="M1297.1,1.5h53.1v16h-36.6v18.7h29.3v15.6h-29.3v17.3h36.6v16h-53.1V1.5z" />
	<path fill="black" d="M0,43.3c0-20.2,5.9-31.5,24.5-31.5s24.5,11.3,24.5,31.5c0,20.2-5.9,30.6-24.5,30.6S0,63.5,0,43.3z M24.6,59
	c10.5-11.2,12.6-16.7,12.6-22.9c0-5.7-2.7-8.6-6.3-8.6c-2.8,0-5,1.3-6.3,5.2h-0.2c-1.2-3.9-3.4-5.2-6.3-5.2c-3.6,0-6.3,3-6.3,8.6
	c0,6.2,2.1,11.7,12.6,22.9H24.6z" />
	<path fill="black" d="M1141.1,43.9c0-28.1,8.2-43.9,34.2-43.9c25.9,0,34.2,15.8,34.2,43.9c0,28.1-8.2,42.7-34.2,42.7
	C1149.3,86.5,1141.1,72,1141.1,43.9z M1174.8,56.7c10.5-9.6,12.6-14.2,12.6-19.5c0-4.8-2.7-7.3-6.3-7.3c-2.8,0-5,1.1-6.3,4.4h-0.2
	c-1.2-3.3-3.4-4.4-6.3-4.4c-3.6,0-6.3,2.5-6.3,7.3c0,5.3,2.1,10,12.6,19.5H1174.8z" />
</svg>